<svg width="581" height="281" viewBox="0 0 581 281" fill="none" xmlns="http://www.w3.org/2000/svg">
<g clip-path="url(#clip0_14_137)">
<path d="M67.5465 279.753V175.121C67.5465 162.146 72.7097 149.702 81.9002 140.528C91.0907 131.353 103.556 126.199 116.553 126.199H155.55" fill="#D0D0D0"/>
<path d="M67.5465 279.753V175.121C67.5465 162.146 72.7097 149.702 81.9002 140.528C91.0907 131.353 103.556 126.199 116.553 126.199H155.55" stroke="#111111" stroke-width="6" stroke-linecap="round" stroke-linejoin="round"/>
<path d="M322.448 207.142C320.334 206.185 318.094 205.279 315.729 204.423C307.742 193.256 294.906 162.318 281.489 143.609C281.334 134.239 282.546 116.836 266.12 106.168" fill="#D0D0D0"/>
<path d="M322.448 207.142C320.334 206.185 318.094 205.279 315.729 204.423C307.742 193.256 294.906 162.318 281.489 143.609C281.334 134.239 282.546 116.836 266.12 106.168" stroke="#111111" stroke-width="6" stroke-linecap="round" stroke-linejoin="round"/>
<path d="M204.214 98.1729C157.304 105.95 150.166 124.479 158.411 141.502C143.701 149.406 119.467 166.342 98.302 199.464C65.1823 251.242 97.1604 279.848 115.975 279.848C134.79 279.848 349.194 278.272 349.194 278.272C349.194 278.272 359.412 256.645 351.467 235.555" fill="#D0D0D0"/>
<path d="M204.214 98.1729C157.304 105.95 150.166 124.479 158.411 141.502C143.701 149.406 119.467 166.342 98.302 199.464C65.1823 251.242 97.1604 279.848 115.975 279.848C134.79 279.848 349.194 278.272 349.194 278.272C349.194 278.272 359.412 256.645 351.467 235.555" stroke="#111111" stroke-width="6" stroke-linecap="round" stroke-linejoin="round"/>
<path d="M199.673 122.178L195.001 125.566C195.001 125.566 226.112 157.904 240.061 223.733C241.647 231.211 242.767 236.891 243.556 241.214C243.525 241.253 252.999 242.217 252.766 242.122C250.029 224.018 246.202 191.015 251.709 175.054C259.503 152.399 259.708 139.294 254.422 122.738C253.154 118.763 251.382 148.446 242.01 159.022C218.361 132.783 199.673 122.178 199.673 122.178Z" fill="#D0D0D0"/>
<path d="M207.988 108.855L207.653 114.581L200.48 122.819C200.48 122.819 221.722 135.928 242.055 159.047C242.055 159.047 250.642 150.085 253.559 122.618" fill="#D0D0D0"/>
<path d="M207.988 108.855L207.653 114.581L200.48 122.819C200.48 122.819 221.722 135.928 242.055 159.047C242.055 159.047 250.642 150.085 253.559 122.618" stroke="#111111" stroke-width="6" stroke-linecap="round" stroke-linejoin="round"/>
<path d="M215.753 171.027C215.753 171.027 227.444 195.317 229.051 211.827L215.753 171.027Z" fill="#D0D0D0"/>
<path d="M215.753 171.027C215.753 171.027 227.444 195.317 229.051 211.827" stroke="#111111" stroke-width="8" stroke-linecap="round" stroke-linejoin="round"/>
<path d="M260.148 170.158C260.148 170.158 254.775 193.404 256.54 209.882L260.148 170.158Z" fill="#D0D0D0"/>
<path d="M260.148 170.158C260.148 170.158 254.775 193.404 256.54 209.882" stroke="#111111" stroke-width="8" stroke-linecap="round" stroke-linejoin="round"/>
<path d="M291.763 261.333C295.607 264.956 297.732 267.232 297.992 268.262C298.62 270.724 293.595 272.131 289.445 268.297L277.226 257.745C277.226 257.745 289.677 270.58 290.639 272.543C291.601 274.505 286.742 277.98 279.548 269.729C272.353 261.477 271.208 261.4 271.208 261.4C271.208 261.4 279.431 271.786 280.527 274.14C281.623 276.493 274.685 278.712 268.326 267.808L230.301 266.296L232.542 238.939C232.542 238.939 251.491 241.816 264.496 244.52L267.691 245.147C269.588 245.306 271.454 245.724 273.237 246.388C277.818 248.031 298.295 257.545 299.856 259.49C301.417 261.435 299.483 265.174 294.48 262.712C289.476 260.25 279.114 254.703 279.114 254.703" fill="#D0D0D0"/>
<path d="M291.763 261.333C295.607 264.956 297.732 267.232 297.992 268.262C298.62 270.724 293.595 272.131 289.445 268.297L277.226 257.745C277.226 257.745 289.677 270.58 290.639 272.543C291.601 274.505 286.742 277.98 279.548 269.729C272.353 261.477 271.208 261.4 271.208 261.4C271.208 261.4 279.431 271.786 280.527 274.14C281.623 276.493 274.685 278.712 268.326 267.808L230.301 266.296L232.542 238.939C232.542 238.939 251.491 241.816 264.496 244.52L267.691 245.147C269.588 245.306 271.454 245.724 273.237 246.388C277.818 248.031 298.295 257.545 299.856 259.49C301.417 261.435 299.483 265.174 294.48 262.712C289.476 260.25 279.114 254.703 279.114 254.703" stroke="#111111" stroke-width="6" stroke-linecap="round" stroke-linejoin="round"/>
<path d="M188.5 279.437C203.651 279.567 221.268 276.742 224.812 276.271C231.809 275.353 229.893 270.091 235.03 268.797C240.167 267.502 241.929 266.173 241.929 266.173C236.788 255.269 245.195 239.216 245.195 239.216C245.195 239.216 243.581 238.559 238.55 236.877C233.518 235.196 235.833 230.096 228.927 228.647C222.022 227.198 165.479 222.376 165.479 222.376" fill="#D0D0D0"/>
<path d="M188.5 279.437C203.651 279.567 221.268 276.742 224.812 276.271C231.809 275.353 229.893 270.091 235.03 268.797C240.167 267.502 241.929 266.173 241.929 266.173C236.788 255.269 245.195 239.216 245.195 239.216C245.195 239.216 243.581 238.559 238.55 236.877C233.518 235.196 235.833 230.096 228.927 228.647C222.022 227.198 165.479 222.376 165.479 222.376" stroke="#111111" stroke-width="6" stroke-linecap="round" stroke-linejoin="round"/>
<path d="M235.787 269.609C241.347 268.252 243.243 266.852 243.243 266.852C237.651 255.276 246.703 238.309 246.703 238.309C246.703 238.309 244.941 237.605 239.508 235.812C237.317 235.091 236.407 233.782 235.632 232.379C222.631 243.944 226.739 267.506 228.793 276.12C231.75 274.094 231.57 270.64 235.787 269.609Z" fill="#D0D0D0"/>
<path d="M171.969 206.143C171.969 206.143 183.243 208.363 184.699 223.575L171.969 206.143Z" fill="#D0D0D0"/>
<path d="M171.969 206.143C171.969 206.143 183.243 208.363 184.699 223.575" stroke="#111111" stroke-width="6" stroke-linecap="round" stroke-linejoin="round"/>
<path d="M315.507 245.688C315.507 245.688 313.393 255.357 310.321 259.029C307.248 262.701 313.742 265.979 317.061 263.711C317.52 263.417 317.961 263.097 318.382 262.751" fill="#D0D0D0"/>
<path d="M315.507 245.688C315.507 245.688 313.393 255.357 310.321 259.029C307.248 262.701 313.742 265.979 317.061 263.711C317.52 263.417 317.961 263.097 318.382 262.751" stroke="#111111" stroke-width="6" stroke-linecap="round" stroke-linejoin="round"/>
<path d="M327.543 231.148C321.768 231.457 316.786 234.275 316.525 242.101C316.525 242.101 318.354 260.095 318.706 265.315C319.059 270.534 324.305 269.455 325.341 267.288" fill="#D0D0D0"/>
<path d="M327.543 231.148C321.768 231.457 316.786 234.275 316.525 242.101C316.525 242.101 318.354 260.095 318.706 265.315C319.059 270.534 324.305 269.455 325.341 267.288" stroke="#111111" stroke-width="6" stroke-linecap="round" stroke-linejoin="round"/>
<path d="M324.731 249.114C324.731 249.114 325.017 260.095 325.365 265.294C325.714 270.492 330.721 270.89 331.708 268.157C332.694 265.424 331.792 249.107 331.792 249.107C331.792 249.107 332.074 260.088 332.426 265.287C332.779 270.485 337.486 270.341 338.522 268.174C339.255 266.644 338.522 249.1 338.522 249.1C338.522 249.1 338.807 260.081 339.159 265.279C339.512 270.478 344.216 270.334 345.255 268.167C346.294 266.001 349.219 240.799 345.572 237.475C344.98 235.657 340.051 232.98 334.417 231.753" fill="#D0D0D0"/>
<path d="M324.731 249.114C324.731 249.114 325.017 260.095 325.365 265.294C325.714 270.492 330.721 270.89 331.708 268.157C332.694 265.424 331.792 249.107 331.792 249.107C331.792 249.107 332.074 260.088 332.426 265.287C332.779 270.485 337.486 270.341 338.522 268.174C339.255 266.644 338.522 249.1 338.522 249.1C338.522 249.1 338.807 260.081 339.159 265.279C339.512 270.478 344.216 270.334 345.255 268.167C346.294 266.001 349.219 240.799 345.572 237.475C344.98 235.657 340.051 232.98 334.417 231.753" stroke="#111111" stroke-width="6" stroke-linecap="round" stroke-linejoin="round"/>
<path d="M335.988 232.157C340.942 233.497 345.04 235.85 345.576 237.496C347.993 239.702 347.52 251.52 346.633 259.866C349.074 257.024 350.773 253.622 351.577 249.965C352.382 246.307 352.267 242.508 351.243 238.906C350.219 235.304 348.318 232.011 345.709 229.32C343.1 226.63 339.865 224.626 336.291 223.487" fill="#D0D0D0"/>
<path d="M327.321 222.506C323.334 222.865 319.514 224.269 316.245 226.575C312.976 228.882 310.376 232.009 308.706 235.641C307.037 239.273 306.358 243.28 306.738 247.258C307.118 251.236 308.543 255.043 310.87 258.294C313.643 254.211 315.507 245.688 315.507 245.688L317.075 247.588C316.761 244.397 316.525 242.101 316.525 242.101C316.783 234.345 321.68 231.51 327.388 231.155" fill="#D0D0D0"/>
<path d="M320.461 211.461C320.461 211.461 292.598 211.929 291.975 240.426L320.461 211.461Z" fill="#D0D0D0"/>
<path d="M320.461 211.461C320.461 211.461 292.598 211.929 291.975 240.426" stroke="#111111" stroke-width="6" stroke-linecap="round" stroke-linejoin="round"/>
<path d="M286.83 225.158C286.83 225.158 287.324 205.289 309.267 205.908L286.83 225.158Z" fill="#D0D0D0"/>
<path d="M286.83 225.158C286.83 225.158 287.324 205.289 309.267 205.908" stroke="#111111" stroke-width="6" stroke-linecap="round" stroke-linejoin="round"/>
<path d="M280.33 142.343C280.33 142.758 280.33 143.156 280.358 143.539C276.895 162.441 273.829 160.12 265.704 175.054C265.644 175.163 265.588 175.279 265.532 175.406C276.658 171.058 285.403 165.395 290.414 155.709C290.414 155.691 283.881 146.483 280.33 142.343Z" fill="#D0D0D0"/>
<path d="M159.256 140.817C152.672 144.417 146.402 148.562 140.512 153.208C146.47 156.62 190.727 181.29 211.258 175.986C196.893 175.979 167.857 159.05 159.256 140.817Z" fill="#D0D0D0"/>
<path d="M210.916 65.3742C212.935 67.8363 215.232 81.1352 216.049 87.294C216.049 87.294 231.697 83.935 253.341 86.0348C253.341 86.0348 264.894 87.5578 269.517 89.443C272.141 78.4128 274.499 63.9391 274.189 50.1267C273.731 29.5822 248.676 28.3195 245.008 28.2246C205.641 27.0357 204.105 64.8853 204.105 64.8853V65.026L210.916 65.3742Z" fill="#D0D0D0" stroke="#111111" stroke-width="6" stroke-linecap="round" stroke-linejoin="round"/>
<path d="M201.089 70.8788C197.591 70.9808 189.349 72.247 190.191 81.9582C190.938 90.5791 198.855 90.551 203.52 89.7631" fill="#D0D0D0"/>
<path d="M201.089 70.8788C197.591 70.9808 189.349 72.247 190.191 81.9582C190.938 90.5791 198.855 90.551 203.52 89.7631" stroke="#111111" stroke-width="6" stroke-linecap="round" stroke-linejoin="round"/>
<path d="M210.916 65.3742C212.935 67.8363 215.232 81.1352 216.049 87.294C216.049 87.294 231.697 83.9349 253.341 86.0348C253.341 86.0348 265.095 87.5859 269.636 89.4923C269.636 89.4923 266.247 110.596 255.465 120.536C244.684 130.476 224.83 125.14 216.095 117.476C207.361 109.812 206.149 106.484 204.746 99.1683C203.344 91.8524 200.497 64.8431 200.497 64.8431L210.916 65.3742Z" fill="#D0D0D0" stroke="#111111" stroke-width="6" stroke-linecap="round" stroke-linejoin="round"/>
<path d="M200.652 68.6312C200.652 68.6312 196.347 57.7452 195.949 47.2461C195.572 37.373 201.938 28.3793 211.518 25.9031C219.538 23.8315 224.403 27.6864 224.403 27.6864C224.403 27.6864 219.287 12.949 233.265 3.62813C235.71 1.99932 238.463 0.885672 241.355 0.355287C244.246 -0.175098 247.216 -0.111067 250.082 0.543463C264.214 3.80048 266.198 16.6738 266.198 16.6738C266.198 16.6738 287.014 -8.19349 314.898 14.5634C317.716 16.8602 320.32 22.21 321.391 25.678C327.895 46.6868 289.434 62.3564 271.402 60.5977C251.6 58.6702 240.879 53.1903 235.579 47.2003C239.67 50.9111 228.628 78.863 200.652 68.6312Z" fill="#D0D0D0"/>
<path d="M254.264 77.8641L254.32 96.5972L247.978 94.2019" fill="#D0D0D0"/>
<path d="M254.264 77.8641L254.32 96.5972L247.978 94.2019" stroke="#111111" stroke-width="8" stroke-linecap="round" stroke-linejoin="round"/>
<path d="M263.37 78.5701C263.551 76.9504 262.849 75.5426 261.8 75.4258C260.752 75.309 259.756 76.5274 259.575 78.1471C259.393 79.7668 260.096 81.1746 261.144 81.2914C262.193 81.4082 263.189 80.1899 263.37 78.5701Z" fill="#D0D0D0"/>
<path d="M245.2 76.2919C245.381 74.6722 244.678 73.2644 243.63 73.1476C242.582 73.0308 241.585 74.2491 241.404 75.8689C241.223 77.4886 241.926 78.8964 242.974 79.0132C244.022 79.13 245.019 77.9116 245.2 76.2919Z" fill="#D0D0D0"/>
<path d="M235.234 65.3601C236.329 64.2411 237.705 63.4361 239.217 63.029C240.73 62.6219 242.325 62.6277 243.835 63.0458" fill="#D0D0D0"/>
<path d="M235.234 65.3601C236.329 64.2411 237.705 63.4361 239.217 63.029C240.73 62.6219 242.325 62.6277 243.835 63.0458" stroke="#111111" stroke-width="8" stroke-linecap="round" stroke-linejoin="round"/>
<path d="M259.736 64.2311C259.736 64.2311 265.151 63.4538 265.986 67.8961L259.736 64.2311Z" fill="#D0D0D0"/>
<path d="M259.736 64.2311C259.736 64.2311 265.151 63.4538 265.986 67.8961" stroke="#111111" stroke-width="8" stroke-linecap="round" stroke-linejoin="round"/>
<path d="M238.863 100.336C238.863 100.336 240.445 105.827 245.491 104.286L238.863 100.336Z" fill="#D0D0D0"/>
<path d="M238.863 100.336C238.863 100.336 240.445 105.827 245.491 104.286" stroke="#111111" stroke-width="8" stroke-linecap="round" stroke-linejoin="round"/>
<path d="M231.919 266.373H356.368C357.396 266.373 358.381 266.781 359.108 267.507C359.835 268.232 360.243 269.216 360.243 270.242V279.739H227.934V270.355C227.933 269.832 228.036 269.315 228.236 268.832C228.436 268.349 228.73 267.91 229.1 267.54C229.47 267.17 229.909 266.877 230.393 266.677C230.877 266.476 231.395 266.373 231.919 266.373Z" fill="#D0D0D0"/>
<path d="M0 279.943H578.886" stroke="#111111" stroke-width="6" stroke-linecap="round" stroke-linejoin="round"/>
<path d="M431.401 167.14C427.903 167.26 426.409 168.005 426.409 171.041C426.409 175.536 430.989 236.793 431.031 237.408C431.074 238.024 433.695 274.745 433.695 274.745C433.773 275.925 434.296 277.032 435.159 277.842C436.022 278.652 437.161 279.105 438.346 279.109L443.441 278.934L431.215 167.858C431.188 167.604 431.254 167.349 431.401 167.14Z" fill="#D0D0D0"/>
<path d="M457.379 203.298H457.305C456.047 203.281 454.799 203.516 453.634 203.99C452.47 204.465 451.413 205.168 450.526 206.059C449.769 206.837 449.181 207.763 448.799 208.779C448.416 209.794 448.247 210.877 448.303 211.961C448.539 216.843 453.045 220.842 458.348 220.881H458.426C459.683 220.898 460.931 220.662 462.096 220.188C463.261 219.713 464.318 219.01 465.204 218.12C465.961 217.341 466.549 216.415 466.932 215.4C467.314 214.384 467.483 213.301 467.428 212.218C467.199 207.346 462.685 203.344 457.379 203.298Z" fill="#D0D0D0"/>
<path d="M490.284 273.253L481.546 237C481.546 237 468.118 174.498 467.185 170.172C466.48 166.933 463.362 167.066 463.006 167.115C462.728 167.154 462.558 167.115 462.248 167.115H433.114C433.224 167.264 433.293 167.438 433.314 167.622L445.565 278.92H485.732C486.428 278.914 487.115 278.754 487.742 278.451C488.369 278.147 488.92 277.708 489.356 277.166C489.792 276.623 490.101 275.991 490.262 275.314C490.422 274.637 490.43 273.933 490.284 273.253ZM466.73 219.59C465.645 220.684 464.351 221.55 462.924 222.135C461.498 222.72 459.968 223.012 458.426 222.995H458.334C451.928 222.949 446.481 218.046 446.189 212.066C446.119 210.696 446.334 209.325 446.819 208.041C447.304 206.757 448.049 205.587 449.008 204.603C450.091 203.507 451.385 202.639 452.812 202.053C454.239 201.467 455.769 201.174 457.312 201.191H457.404C463.809 201.237 469.256 206.14 469.545 212.119C469.615 213.491 469.402 214.862 468.917 216.147C468.433 217.433 467.688 218.605 466.73 219.59Z" fill="#D0D0D0"/>
<path d="M371.684 266.373H483.022V278.92H367.699V270.337C367.702 269.285 368.124 268.277 368.871 267.534C369.618 266.791 370.629 266.373 371.684 266.373Z" fill="#D0D0D0"/>
<path d="M536.711 95.8726C536.711 92.5558 534.1 89.8932 530.919 89.8932L341.295 90.4771C341.175 90.4771 341.059 90.4771 340.942 90.4982L325.855 90.5439C322.684 90.5439 320.109 93.2487 320.126 96.562L320.831 235.383C320.831 238.696 323.438 241.362 326.62 241.362L340.393 241.045C340.932 241.214 341.494 241.299 342.059 241.299L429.055 239.22C429.012 238.801 428.967 238.263 428.914 237.57C428.724 235.045 424.284 175.617 424.284 171.044C424.284 165.012 429.308 165.012 432.634 165.012H463.203C463.345 165.011 463.487 165.026 463.626 165.058C465.603 165.125 468.488 166.219 469.242 169.722C470.141 173.904 482.962 233.666 483.875 237.911L531.676 236.768C534.847 236.768 537.423 234.064 537.405 230.75L536.711 95.8726ZM338.187 239.814C338.158 240.074 338.034 240.313 337.839 240.486C337.644 240.66 337.391 240.755 337.13 240.753H337.01C332.493 240.247 329.988 236.884 329.963 231.257C329.963 228.07 329.315 105.447 329.28 98.8764C329.248 92.8618 334.248 91.1384 336.894 91.0504C337.174 91.0416 337.447 91.1443 337.651 91.3359C337.856 91.5275 337.976 91.7924 337.984 92.0722C337.993 92.3521 337.89 92.624 337.699 92.8281C337.507 93.0323 337.241 93.152 336.961 93.1608C336.387 93.1819 331.366 93.5125 331.394 98.8694C331.429 105.44 332.06 228.063 332.078 231.25C332.102 235.847 333.793 238.284 337.25 238.636C337.389 238.651 337.524 238.693 337.647 238.761C337.77 238.828 337.879 238.919 337.966 239.029C338.053 239.139 338.117 239.265 338.155 239.4C338.193 239.534 338.204 239.675 338.187 239.814Z" fill="#D0D0D0"/>
<path d="M115.154 258.435C120.823 258.435 125.418 253.848 125.418 248.189C125.418 242.53 120.823 237.943 115.154 237.943C109.486 237.943 104.891 242.53 104.891 248.189C104.891 253.848 109.486 258.435 115.154 258.435Z" fill="#D0D0D0" stroke="#111111" stroke-width="6" stroke-linecap="round" stroke-linejoin="round"/>
<path d="M117.821 234.278V268.505C117.821 271.303 118.935 273.987 120.917 275.966C122.9 277.945 125.588 279.057 128.392 279.057H150.096C152.899 279.057 155.587 277.945 157.57 275.966C159.552 273.987 160.666 271.303 160.666 268.505V234.278H117.821ZM135.153 258.572C135.273 258.641 135.373 258.74 135.443 258.86C135.513 258.98 135.55 259.116 135.551 259.254C135.55 259.46 135.468 259.657 135.322 259.803C135.176 259.949 134.979 260.031 134.772 260.032C134.636 260.034 134.501 260 134.381 259.933L126.63 255.283C126.501 255.216 126.394 255.114 126.318 254.991C126.242 254.867 126.202 254.725 126.2 254.58C126.202 254.435 126.243 254.293 126.319 254.17C126.395 254.046 126.502 253.945 126.63 253.876L134.381 249.227C134.501 249.162 134.636 249.13 134.772 249.132C134.875 249.129 134.977 249.149 135.071 249.188C135.166 249.227 135.251 249.286 135.322 249.36C135.396 249.431 135.454 249.517 135.493 249.611C135.533 249.705 135.552 249.807 135.551 249.909C135.55 250.047 135.513 250.183 135.443 250.302C135.373 250.421 135.273 250.52 135.153 250.588L128.487 254.576L135.153 258.572ZM144.839 247.134L138.602 262.698C138.561 262.777 138.508 262.85 138.444 262.912C138.372 262.987 138.286 263.046 138.191 263.086C138.096 263.126 137.994 263.146 137.891 263.145C137.788 263.146 137.686 263.126 137.591 263.086C137.496 263.047 137.409 262.989 137.337 262.916C137.264 262.845 137.205 262.76 137.166 262.665C137.127 262.571 137.107 262.469 137.108 262.367C137.108 262.253 137.132 262.141 137.179 262.037L143.401 246.473C143.444 246.389 143.5 246.313 143.567 246.247C143.677 246.142 143.816 246.07 143.966 246.042C144.116 246.014 144.271 246.031 144.412 246.09C144.553 246.149 144.674 246.248 144.759 246.375C144.844 246.502 144.89 246.651 144.892 246.803C144.895 246.916 144.877 247.028 144.839 247.134ZM155.381 255.283L147.629 259.926C147.479 260.009 147.307 260.041 147.137 260.017C146.968 259.994 146.81 259.916 146.688 259.796C146.615 259.725 146.556 259.64 146.517 259.545C146.478 259.451 146.458 259.35 146.459 259.247C146.46 259.108 146.498 258.972 146.568 258.852C146.639 258.732 146.74 258.633 146.861 258.565L153.524 254.576L146.861 250.588C146.74 250.52 146.639 250.422 146.568 250.303C146.498 250.183 146.46 250.048 146.459 249.909C146.46 249.702 146.543 249.505 146.69 249.359C146.836 249.213 147.035 249.132 147.242 249.132C147.377 249.13 147.51 249.163 147.629 249.227L155.381 253.876C155.508 253.945 155.615 254.046 155.69 254.17C155.765 254.294 155.805 254.435 155.807 254.58C155.806 254.725 155.767 254.867 155.691 254.991C155.616 255.115 155.509 255.216 155.381 255.283Z" fill="#D0D0D0"/>
</g>
<defs>
<clipPath id="clip0_14_137">
<rect width="581" height="281" fill="white"/>
</clipPath>
</defs>
</svg>
